<svg width="24" height="24" viewBox="0 0 24 24" fill="none" xmlns="http://www.w3.org/2000/svg">
<g clip-path="url(#clip0_2144_12086)">
<path d="M4 16V15.1167C4 14.6881 4.23056 14.3393 4.69167 14.0703C5.15278 13.8012 5.75764 13.6667 6.50627 13.6667C6.64143 13.6667 6.77141 13.6694 6.89618 13.675C7.02095 13.6806 7.14444 13.6925 7.26667 13.7109C7.17778 13.9036 7.11111 14.099 7.06667 14.297C7.02222 14.4949 7 14.7015 7 14.9167V16H4ZM8 16V14.9167C8 14.5611 8.09722 14.2361 8.29167 13.9417C8.48611 13.6472 8.76111 13.3889 9.11667 13.1667C9.47222 12.9444 9.89722 12.7778 10.3917 12.6667C10.8861 12.5556 11.4222 12.5 12 12.5C12.5889 12.5 13.1306 12.5556 13.625 12.6667C14.1194 12.7778 14.5444 12.9444 14.9 13.1667C15.2556 13.3889 15.5278 13.6472 15.7167 13.9417C15.9056 14.2361 16 14.5611 16 14.9167V16H8ZM17 16V14.9167C17 14.696 16.9806 14.488 16.9417 14.2928C16.9028 14.0976 16.8389 13.904 16.75 13.7121C16.8722 13.6929 16.9954 13.6806 17.1195 13.675C17.2437 13.6694 17.3705 13.6667 17.5 13.6667C18.25 13.6667 18.8542 13.7987 19.3125 14.0628C19.7708 14.3269 20 14.6782 20 15.1167V16H17ZM9 15H15V14.9C15 14.4889 14.7194 14.1528 14.1583 13.8917C13.5972 13.6306 12.8778 13.5 12 13.5C11.1222 13.5 10.4028 13.6306 9.84167 13.8917C9.28056 14.1528 9 14.4944 9 14.9167V15ZM6.49278 13.1667C6.17537 13.1667 5.90278 13.0524 5.675 12.824C5.44722 12.5955 5.33333 12.3208 5.33333 12C5.33333 11.6778 5.44757 11.4028 5.67603 11.175C5.90451 10.9472 6.17917 10.8333 6.5 10.8333C6.82222 10.8333 7.09722 10.9472 7.325 11.175C7.55278 11.4028 7.66667 11.6802 7.66667 12.0072C7.66667 12.3246 7.55278 12.5972 7.325 12.825C7.09722 13.0528 6.81982 13.1667 6.49278 13.1667ZM17.4928 13.1667C17.1754 13.1667 16.9028 13.0524 16.675 12.824C16.4472 12.5955 16.3333 12.3208 16.3333 12C16.3333 11.6778 16.4476 11.4028 16.676 11.175C16.9045 10.9472 17.1792 10.8333 17.5 10.8333C17.8222 10.8333 18.0972 10.9472 18.325 11.175C18.5528 11.4028 18.6667 11.6802 18.6667 12.0072C18.6667 12.3246 18.5528 12.5972 18.325 12.825C18.0972 13.0528 17.8198 13.1667 17.4928 13.1667ZM12 12C11.4444 12 10.9722 11.8056 10.5833 11.4167C10.1944 11.0278 10 10.5556 10 10C10 9.43333 10.1944 8.95833 10.5833 8.575C10.9722 8.19167 11.4444 8 12 8C12.5667 8 13.0417 8.19167 13.425 8.575C13.8083 8.95833 14 9.43333 14 10C14 10.5556 13.8083 11.0278 13.425 11.4167C13.0417 11.8056 12.5667 12 12 12ZM12.0059 11C12.2908 11 12.5278 10.9036 12.7167 10.7108C12.9056 10.518 13 10.2791 13 9.99415C13 9.70916 12.9047 9.47222 12.7142 9.28333C12.5236 9.09444 12.2875 9 12.0059 9C11.7242 9 11.4861 9.09527 11.2917 9.28582C11.0972 9.47636 11 9.71247 11 9.99415C11 10.2758 11.0964 10.5139 11.2892 10.7083C11.482 10.9028 11.7209 11 12.0059 11Z" fill="#FFFFFF"/>
</g>
<defs>
<clipPath id="clip0_2144_12086">
<rect width="24" height="24" fill="white"/>
</clipPath>
</defs>
</svg>
