<svg width="40" height="40" viewBox="0 0 40 40" fill="none" xmlns="http://www.w3.org/2000/svg">
<path d="M18.9893 19.3471V22.0291C18.9893 22.2587 19.0668 22.4507 19.2218 22.605C19.3768 22.7594 19.5609 22.8366 19.7741 22.8366C19.9873 22.8366 20.1745 22.7594 20.3355 22.605C20.4966 22.4507 20.5772 22.2587 20.5772 22.0291V19.3471H23.2591C23.4788 19.3471 23.6683 19.2678 23.8276 19.1091C23.987 18.9505 24.0666 18.7618 24.0666 18.5432C24.0666 18.3246 23.987 18.1393 23.8276 17.9873C23.6683 17.8353 23.4788 17.7593 23.2591 17.7593H20.5772V15.0501C20.5772 14.8382 20.497 14.6552 20.3367 14.501C20.1764 14.3469 19.9857 14.2698 19.7647 14.2698C19.5514 14.2698 19.3688 14.3469 19.217 14.501C19.0652 14.6552 18.9893 14.8382 18.9893 15.0501V17.7593H16.2802C16.0683 17.7593 15.8852 17.8369 15.7311 17.9923C15.577 18.1476 15.4999 18.3346 15.4999 18.5531C15.4999 18.7717 15.577 18.9587 15.7311 19.1141C15.8852 19.2694 16.0683 19.3471 16.2802 19.3471H18.9893ZM13.2028 27.1336L10.6338 29.7025C10.3326 30.0038 9.98498 30.0762 9.59097 29.9198C9.19699 29.7635 9 29.4623 9 29.0164V11.9226C9 11.4103 9.19236 10.9618 9.57708 10.5771C9.9618 10.1924 10.4103 10 10.9226 10H28.6168C29.129 10 29.5775 10.1924 29.9622 10.5771C30.347 10.9618 30.5394 11.4103 30.5394 11.9226V25.211C30.5394 25.7233 30.347 26.1718 29.9622 26.5565C29.5775 26.9412 29.129 27.1336 28.6168 27.1336H13.2028ZM11.341 25.5458H28.6168C28.7005 25.5458 28.7772 25.5109 28.8469 25.4412C28.9167 25.3714 28.9515 25.2947 28.9515 25.211V11.9226C28.9515 11.8389 28.9167 11.7622 28.8469 11.6924C28.7772 11.6227 28.7005 11.5878 28.6168 11.5878H10.9226C10.8389 11.5878 10.7621 11.6227 10.6924 11.6924C10.6227 11.7622 10.5878 11.8389 10.5878 11.9226V26.2989L11.341 25.5458Z" fill="#666"/>
</svg>
