<svg width="24" height="24" viewBox="0 0 24 24" fill="none" xmlns="http://www.w3.org/2000/svg">
<path d="M20.3254 22.4746L17.8504 19.9996H4.00039V17.6496C4.00039 17.0163 4.15872 16.4746 4.47539 16.0246C4.79206 15.5746 5.20039 15.2329 5.70039 14.9996C6.70039 14.5496 7.66289 14.1996 8.58789 13.9496C9.51289 13.6996 10.4421 13.5579 11.3754 13.5246L1.52539 3.67461L2.60039 2.59961L21.4004 21.3996L20.3254 22.4746ZM5.50039 18.4996H16.3504L12.8754 15.0246C12.7421 15.0079 12.6004 14.9996 12.4504 14.9996H12.0004C11.0504 14.9996 10.1254 15.0954 9.22539 15.2871C8.32539 15.4788 7.35039 15.8329 6.30039 16.3496C6.06706 16.4663 5.87539 16.6454 5.72539 16.8871C5.57539 17.1288 5.50039 17.3829 5.50039 17.6496V18.4996ZM18.2754 14.9996C18.7921 15.2329 19.2087 15.5746 19.5254 16.0246C19.8421 16.4746 20.0004 17.0163 20.0004 17.6496V17.8496L16.4254 14.2746C16.7254 14.3746 17.0296 14.4871 17.3379 14.6121C17.6462 14.7371 17.9587 14.8663 18.2754 14.9996ZM13.7504 11.5996L12.5504 10.3996C13.0504 10.2829 13.4587 10.0246 13.7754 9.62461C14.0921 9.22461 14.2504 8.75794 14.2504 8.22461C14.2504 7.59128 14.0337 7.05794 13.6004 6.62461C13.1671 6.19128 12.6337 5.97461 12.0004 5.97461C11.4671 5.97461 11.0004 6.13294 10.6004 6.44961C10.2004 6.76628 9.94206 7.17461 9.82539 7.67461L8.62539 6.47461C8.94206 5.84128 9.40456 5.34961 10.0129 4.99961C10.6212 4.64961 11.2837 4.47461 12.0004 4.47461C13.0504 4.47461 13.9379 4.83711 14.6629 5.56211C15.3879 6.28711 15.7504 7.17461 15.7504 8.22461C15.7504 8.94128 15.5754 9.60378 15.2254 10.2121C14.8754 10.8204 14.3837 11.2829 13.7504 11.5996Z" fill="#9C9C9C"/>
</svg>
