<svg width="24" height="24" viewBox="0 0 24 24" fill="none" xmlns="http://www.w3.org/2000/svg">
<path d="M11.6154 12.3846H12.3846H16.5V11.6154H12.3846H11.6154H7.5V12.3846H11.6154ZM5.3846 20C5.00032 20 4.67347 19.8653 4.40407 19.5959C4.13469 19.3265 4 18.9997 4 18.6154V5.3846C4 5.00032 4.13469 4.67348 4.40407 4.40408C4.67347 4.13469 5.00032 4 5.3846 4H18.6154C18.9997 4 19.3265 4.13469 19.5959 4.40408C19.8653 4.67348 20 5.00032 20 5.3846V18.6154C20 18.9997 19.8653 19.3265 19.5959 19.5959C19.3265 19.8653 18.9997 20 18.6154 20H5.3846ZM5.3846 19.2308H18.6154C18.7692 19.2308 18.9103 19.1667 19.0385 19.0385C19.1667 18.9103 19.2308 18.7692 19.2308 18.6154V5.3846C19.2308 5.23077 19.1667 5.08974 19.0385 4.96152C18.9103 4.83332 18.7692 4.76922 18.6154 4.76922H5.3846C5.23077 4.76922 5.08974 4.83332 4.96152 4.96152C4.83332 5.08974 4.76922 5.23077 4.76922 5.3846V18.6154C4.76922 18.7692 4.83332 18.9103 4.96152 19.0385C5.08974 19.1667 5.23077 19.2308 5.3846 19.2308Z" fill="#666666"/>
</svg>
