<svg width="24" height="24" viewBox="0 0 24 24" fill="none" xmlns="http://www.w3.org/2000/svg">
<path d="M11.9502 22C10.5669 22 9.26686 21.7375 8.0502 21.2125C6.83353 20.6875 5.7752 19.975 4.8752 19.075C3.9752 18.175 3.2627 17.1167 2.7377 15.9C2.2127 14.6833 1.9502 13.3833 1.9502 12C1.9502 10.6167 2.2127 9.31667 2.7377 8.1C3.2627 6.88333 3.9752 5.825 4.8752 4.925C5.7752 4.025 6.83353 3.3125 8.0502 2.7875C9.26686 2.2625 10.5669 2 11.9502 2C13.4169 2 14.8044 2.3 16.1127 2.9C17.421 3.5 18.5502 4.35 19.5002 5.45L11.9502 13V3.5C9.58353 3.5 7.5752 4.32343 5.9252 5.9703C4.2752 7.61718 3.4502 9.62708 3.4502 12C3.4502 14.3729 4.27363 16.3828 5.9205 18.0297C7.56738 19.6766 9.57728 20.5 11.9502 20.5C13.3002 20.5 14.5794 20.1958 15.7877 19.5875C16.996 18.9792 18.0419 18.15 18.9252 17.1V19.175C17.9752 20.075 16.9002 20.7708 15.7002 21.2625C14.5002 21.7542 13.2502 22 11.9502 22Z" fill="#4F4F4F"/>
</svg>
