<?xml version="1.0" encoding="UTF-8"?>
<svg width="14px" height="14px" viewBox="0 0 14 14" version="1.1" xmlns="http://www.w3.org/2000/svg" xmlns:xlink="http://www.w3.org/1999/xlink">
    <title>icon-member</title>
    <g id="Page-1" stroke="none" stroke-width="1" fill="none" fill-rule="evenodd">
        <g id="icon-member" fill="#4F4F4F" fill-rule="nonzero">
            <path d="M7,8.75 C4.66,8.75 0,9.92 0,12.25 L0,14 L14,14 L14,12.25 C14,9.92 9.34,8.75 7,8.75 Z M2.34,12 C3.18,11.42 5.21,10.75 7,10.75 C8.79,10.75 10.82,11.42 11.66,12 L2.34,12 Z M7,7 C8.93,7 10.5,5.43 10.5,3.5 C10.5,1.57 8.93,0 7,0 C5.07,0 3.5,1.57 3.5,3.5 C3.5,5.43 5.07,7 7,7 Z M7,2 C7.83,2 8.5,2.67 8.5,3.5 C8.5,4.33 7.83,5 7,5 C6.17,5 5.5,4.33 5.5,3.5 C5.5,2.67 6.17,2 7,2 Z" id="Shape"></path>
        </g>
    </g>
</svg>